<?xml version="1.0" encoding="UTF-8" standalone="no"?>
<!-- Created with Inkscape (http://www.inkscape.org/) -->

<svg
   xmlns:dc="http://purl.org/dc/elements/1.1/"
   xmlns:cc="http://creativecommons.org/ns#"
   xmlns:rdf="http://www.w3.org/1999/02/22-rdf-syntax-ns#"
   xmlns:svg="http://www.w3.org/2000/svg"
   xmlns="http://www.w3.org/2000/svg"
   xmlns:sodipodi="http://sodipodi.sourceforge.net/DTD/sodipodi-0.dtd"
   xmlns:inkscape="http://www.inkscape.org/namespaces/inkscape"
   width="105.833mm"
   height="67.733002mm"
   viewBox="0 0 105.833 67.733002"
   version="1.1"
   id="svg4207"
   inkscape:version="0.92.3 (2405546, 2018-03-11)"
   sodipodi:docname="one_big.svg">
  <defs
     id="defs4201" />
  <sodipodi:namedview
     id="base"
     pagecolor="#ffffff"
     bordercolor="#666666"
     borderopacity="1.0"
     inkscape:pageopacity="0.0"
     inkscape:pageshadow="2"
     inkscape:zoom="0.35"
     inkscape:cx="-269.66278"
     inkscape:cy="-265.77474"
     inkscape:document-units="mm"
     inkscape:current-layer="layer1"
     showgrid="false"
     fit-margin-top="0"
     fit-margin-left="0"
     fit-margin-right="0"
     fit-margin-bottom="0"
     inkscape:window-width="1920"
     inkscape:window-height="1057"
     inkscape:window-x="-8"
     inkscape:window-y="-8"
     inkscape:window-maximized="1" />
  <metadata
     id="metadata4204">
    <rdf:RDF>
      <cc:Work
         rdf:about="">
        <dc:format>image/svg+xml</dc:format>
        <dc:type
           rdf:resource="http://purl.org/dc/dcmitype/StillImage" />
        <dc:title></dc:title>
      </cc:Work>
    </rdf:RDF>
  </metadata>
  <g
     inkscape:label="Layer 1"
     inkscape:groupmode="layer"
     id="layer1"
     transform="translate(-147.41071,-172.87295)">
    <path
       d="m 235.60484,240.60595 h -70.55526 c -9.74161,0 -17.63887,-7.89724 -17.63887,-17.6388 v -32.4554 c 0,-9.74156 7.89726,-17.6388 17.63887,-17.6388 h 70.55526 c 9.74163,0 17.63887,7.89724 17.63887,17.6388 v 32.4554 c 0,9.74156 -7.89724,17.6388 -17.63887,17.6388"
       style="fill:#f2a30f;fill-opacity:1;fill-rule:nonzero;stroke:none;stroke-width:0.70555258"
       id="path3869"
       inkscape:connector-curvature="0" />
    <g
       id="g3893"
       transform="matrix(0.70555333,0,0,-0.70555221,218.67157,233.02127)"
       style="fill:#ffffff">
      <path
         d="m 0,0 h -52 c -6.6,0 -12,5.4 -12,12 v 52 c 0,6.6 5.4,12 12,12 H 0 C 6.6,76 12,70.6 12,64 V 12 C 12,5.4 6.6,0 0,0 Z"
         style="fill:#ffffff;stroke:#000000;stroke-width:1;stroke-linecap:butt;stroke-linejoin:miter;stroke-miterlimit:10;stroke-dasharray:none;stroke-opacity:1"
         id="path3895"
         inkscape:connector-curvature="0" />
    </g>
    <g
       id="g3937"
       transform="matrix(0.70555333,0,0,-0.70555221,204.20778,205.50474)">
      <path
         d="m 0,0 c 0,-3.037 -2.462,-5.5 -5.5,-5.5 -3.038,0 -5.5,2.463 -5.5,5.5 0,3.037 2.462,5.5 5.5,5.5 C -2.462,5.5 0,3.037 0,0"
         style="fill:#000000;fill-opacity:1;fill-rule:nonzero;stroke:none"
         id="path3939"
         inkscape:connector-curvature="0" />
    </g>
  </g>
</svg>
